# Blender v2.92.0 OBJ File: ''
# www.blender.org
o Cube
v 0.500000 -0.490000 -0.500000
v 0.500000 -0.510000 -0.500000
v 0.500000 -0.490000 0.500000
v 0.500000 -0.510000 0.500000
v -0.500000 -0.490000 -0.500000
v -0.500000 -0.510000 -0.500000
v -0.500000 -0.490000 0.500000
v -0.500000 -0.510000 0.500000
vt 0.894046 0.000097
vt 0.116006 1.003423
vt 0.116006 0.000097
vt 0.603052 0.635390
vt 0.282782 0.785665
vt 0.282782 0.635390
vt 0.685533 0.040503
vt 0.362089 0.348954
vt 0.365263 0.040503
vt 0.888812 0.003012
vt 0.116323 0.997830
vt 0.116323 0.003012
vt 0.915643 0.339520
vt 0.603310 0.489795
vt 0.603310 0.339520
vt 0.917294 0.191038
vt 0.604961 0.338489
vt 0.604961 0.188214
vt 0.894046 1.003423
vt 0.603052 0.785665
vt 0.682359 0.348954
vt 0.888812 0.997830
vt 0.915643 0.489795
vt 0.917294 0.341313
vn 0.0000 1.0000 0.0000
vn 0.0000 0.0000 1.0000
vn -1.0000 0.0000 0.0000
vn 0.0000 -1.0000 0.0000
vn 1.0000 0.0000 0.0000
vn 0.0000 0.0000 -1.0000
s off
f 5/1/1 3/2/1 1/3/1
f 3/4/2 8/5/2 4/6/2
f 7/7/3 6/8/3 8/9/3
f 2/10/4 8/11/4 6/12/4
f 1/13/5 4/14/5 2/15/5
f 5/16/6 2/17/6 6/18/6
f 5/1/1 7/19/1 3/2/1
f 3/4/2 7/20/2 8/5/2
f 7/7/3 5/21/3 6/8/3
f 2/10/4 4/22/4 8/11/4
f 1/13/5 3/23/5 4/14/5
f 5/16/6 1/24/6 2/17/6
